<?xml version="1.0" encoding="UTF-8"?>
<svg width="30px" height="31px" viewBox="0 0 30 31" version="1.1" xmlns="http://www.w3.org/2000/svg" xmlns:xlink="http://www.w3.org/1999/xlink">
    <!-- Generator: sketchtool 53 (72520) - https://sketchapp.com -->
    <title>CE83FA48-F621-4F78-9FEE-B7928D11D307@2x</title>
    <desc>Created with sketchtool.</desc>
    <g id="Page-1" stroke="none" stroke-width="1" fill="none" fill-rule="evenodd">
        <g id="OP1.1-(hover)" transform="translate(-150.000000, -1649.000000)" fill="#77A54F" fill-rule="nonzero">
            <g id="Stacked-Group">
                <g id="Group-4" transform="translate(0.000000, 1373.000000)">
                    <g id="Stacked-Group-2" transform="translate(135.000000, 66.000000)">
                        <g transform="translate(0.000000, 195.000000)" id="Oval-2">
                            <g>
                                <g>
                                    <g>
                                        <path d="M41.2035437,32.4498839 C39.1138656,32.4919386 37.1957491,32.9411964 35.2744184,33.795231 C33.7327735,34.4802379 32.2976013,35.3431687 30.8708666,36.2242963 C32.6073768,34.9933866 34.3334405,33.7523675 35.8991924,32.2861131 C37.7469967,30.5562078 39.1496243,28.6378649 40.1870304,26.3353682 C40.8150187,24.9419008 41.3911768,23.5225535 41.9243441,22.0894576 C40.6338141,22.8982025 39.3649805,23.7469803 38.1315039,24.6418565 C36.0936558,26.1198377 34.5021897,27.8824972 33.181526,30.0471029 C32.0272008,31.9395659 31.1396601,33.9529363 30.256539,35.9719679 C30.9496163,33.4656675 31.645506,30.9646239 31.997067,28.3701704 C32.385592,25.5019566 32.2465748,22.7906394 31.5097031,20.0065352 C31.0637229,18.3215152 30.5538591,16.6510527 29.9961831,15 C29.438507,16.6510527 28.9282414,18.3215152 28.482663,20.0065352 C27.7457913,22.7906394 27.6067741,25.5019566 27.9952991,28.3701704 C28.3484672,30.9783726 29.0499819,33.4915473 29.7466752,36.011192 C28.8579292,33.9792205 27.9667725,31.9521014 26.8048134,30.0475072 C25.4845514,27.8829016 23.8926835,26.1202421 21.8548355,24.6422608 C20.6213588,23.747789 19.3525252,22.8990112 18.0619953,22.089862 C18.5951625,23.5225535 19.1713207,24.9423052 19.7993089,26.3357726 C20.836715,28.6382693 22.2393427,30.5566121 24.0871469,32.2865174 C25.6259793,33.7272964 27.3199004,34.9509274 29.0262767,36.1612142 C27.6332918,35.3023271 26.2302624,34.464063 24.7251798,33.795231 C22.8038491,32.9416008 20.8857327,32.4919386 18.7960545,32.4498839 C17.5312387,32.4244084 16.2636104,32.4470533 15,32.5073048 C16.0382097,33.2347708 17.1001246,33.9323133 18.1845394,34.5873966 C19.9768974,35.670306 21.8387641,36.3160888 23.9167906,36.6209856 C25.5303548,36.8579479 27.1471333,36.9012157 28.7667243,36.9194125 C27.7108361,36.9942214 26.6581622,37.093697 25.6131223,37.3063969 C24.1104504,37.6121025 22.7785367,38.1580053 21.5153281,39.0193186 C20.7507333,39.5405546 20.0046205,40.0917143 19.2761863,40.6634969 C20.1998875,40.6566226 21.1247941,40.6222509 22.0456828,40.5531032 C23.5676403,40.4382615 24.9477681,40.033889 26.314637,39.3343247 C27.4717747,38.7419191 28.5348949,38.0104093 29.5948009,37.2712165 L29.5948009,46 L30.3983688,46 L30.3983688,37.366244 C31.4132749,38.0730871 32.4342079,38.7673945 33.5415244,39.3343247 C34.9079915,40.033889 36.288521,40.4386658 37.8104785,40.5531032 C38.7313673,40.6226553 39.6562739,40.6566226 40.5799751,40.6634969 C39.8519426,40.0917143 39.1058299,39.5405546 38.3408333,39.0193186 C37.0772229,38.1580053 35.745711,37.6125068 34.2430391,37.3063969 C33.2060348,37.0953145 32.1609948,36.9954345 31.1131424,36.9206256 C32.7725099,36.9032376 34.4294668,36.8632047 36.0832094,36.6205813 C38.1612359,36.3156844 40.0231026,35.6694973 41.8154606,34.5869923 C42.9002772,33.9315045 43.9617903,33.2339621 45,32.5069004 C43.7359878,32.4470533 42.4683595,32.4244084 41.2035437,32.4498839 Z" id="Shape"></path>
                                    </g>
                                </g>
                            </g>
                        </g>
                    </g>
                </g>
            </g>
        </g>
    </g>
</svg>