<?xml version="1.0" encoding="UTF-8"?>
<svg width="65px" height="67px" viewBox="0 0 65 67" version="1.1" xmlns="http://www.w3.org/2000/svg" xmlns:xlink="http://www.w3.org/1999/xlink">
    <!-- Generator: sketchtool 53 (72520) - https://sketchapp.com -->
    <title>486B98CF-0539-4631-B5E8-AB1A6F347A81@2x</title>
    <desc>Created with sketchtool.</desc>
    <g id="Page-1" stroke="none" stroke-width="1" fill="none" fill-rule="evenodd">
        <g id="OP1.1" transform="translate(-361.000000, -2418.000000)" fill="#FFFFFF" fill-rule="nonzero">
            <g id="Stacked-Group">
                <g id="Group-4" transform="translate(0.000000, 2111.000000)">
                    <g id="Stacked-Group-2" transform="translate(260.000000, 60.000000)">
                        <g transform="translate(0.000000, 218.000000)" id="Stacked-Group-3">
                            <g>
                                <g id="Cannabis_leaf_white_Circle" transform="translate(69.000000, 0.000000)">
                                    <path d="M88.7743448,66.7142652 C84.2467087,66.8051577 80.0907898,67.7761342 75.9279066,69.6219509 C72.5876759,71.1024497 69.4781363,72.9674937 66.3868777,74.8718661 C70.1493163,72.2115129 73.889121,69.5293105 77.2815836,66.3603089 C81.2851594,62.6214813 84.3241861,58.4753855 86.5718992,53.4990217 C87.9325405,50.487334 89.1808831,47.4197125 90.3360789,44.3223761 C87.5399306,46.0703086 84.7907911,47.9047638 82.1182584,49.8388511 C77.702921,53.0331977 74.2547444,56.8428165 71.3933063,61.5211578 C68.8922683,65.6113198 66.9692635,69.9627977 65.0558346,74.3265112 C66.557502,68.9096684 68.0652631,63.5041872 68.8269785,57.8968198 C69.6687827,51.6977773 69.3675787,45.8378336 67.7710233,39.820576 C66.804733,36.1787587 65.7000281,32.5684042 64.4917299,29 C63.2834318,32.5684042 62.1778563,36.1787587 61.2124366,39.820576 C59.6158812,45.8378336 59.3146772,51.6977773 60.1564814,57.8968198 C60.9216789,63.5339021 62.4416275,68.9656023 63.9511297,74.4112859 C62.0255133,70.0196055 60.0946737,65.6384128 57.5770956,61.5220318 C54.7165281,56.8436905 51.2674809,53.0340716 46.8521435,49.839725 C44.1796108,47.9065117 41.4304713,46.0720566 38.6343231,44.3232501 C39.7895188,47.4197125 41.0378614,50.488208 42.3985027,53.4998956 C44.6462159,58.4762594 47.6852425,62.6223553 51.6888184,66.3611829 C55.0229553,69.4751246 58.6931174,72.1197464 62.3902661,74.7355274 C59.3721323,72.8792231 56.3322351,71.0674911 53.0712229,69.6219509 C48.9083397,67.7770082 44.7524207,66.8051577 40.2247847,66.7142652 C37.4843505,66.6592053 34.7378226,66.7081475 32,66.8383684 C34.2494542,68.4106337 36.5502699,69.9182255 38.8998353,71.3340508 C42.7832778,73.6745324 46.8173222,75.0702565 51.3197129,75.729227 C54.8157687,76.2413712 58.3187888,76.3348856 61.8279026,76.3742141 C59.5401449,76.5358978 57.2593515,76.7508935 54.9950982,77.2105998 C51.7393092,77.8713183 48.8534962,79.0511727 46.1165441,80.9127208 C44.4599221,82.0392633 42.8433444,83.2304792 41.2650702,84.4662675 C43.2664229,84.4514101 45.2703872,84.377123 47.2656461,84.2276747 C50.5632207,83.9794683 53.5534975,83.1055021 56.5150468,81.5935405 C59.0221785,80.3131799 61.3256057,78.732175 63.6220687,77.1345647 L63.6220687,96 L65.3631323,96 L65.3631323,77.3399468 C67.5620957,78.8676398 69.7741171,80.3682398 72.1733028,81.5935405 C75.1339815,83.1055021 78.1251289,83.9803423 81.4227035,84.2276747 C83.4179624,84.3779969 85.4219267,84.4514101 87.4232794,84.4662675 C85.8458757,83.2304792 84.2292981,82.0392633 82.5718055,80.9127208 C79.8339829,79.0511727 76.9490404,77.8721922 73.6932514,77.2105998 C71.4464087,76.7543894 69.1821554,76.5385197 66.9118084,76.376836 C70.5071049,76.3392554 74.0971781,76.2527328 77.6802871,75.728353 C82.1826778,75.0693825 86.2167222,73.6727844 90.1001647,71.3331768 C92.4506007,69.9164775 94.7505458,68.4088858 97,66.8374945 C94.2613069,66.7081475 91.514779,66.6592053 88.7743448,66.7142652 Z" id="Cannabis_leaf_white"></path>
                                </g>
                            </g>
                        </g>
                    </g>
                </g>
            </g>
        </g>
    </g>
</svg>